<svg xml:space="preserve" viewBox="0 0 80 80" width="100%" y="0px" x="0px" xmlns:xlink="http://www.w3.org/1999/xlink" xmlns="http://www.w3.org/2000/svg" id="Layer_1" version="1.1">
<path d="M65.000000,1.000000   C70.258430,1.000000 75.516861,1.000000 81.000000,1.000000   C81.000000,6.017719 81.000000,11.037662 80.628967,16.529301   C78.709885,17.400787 77.161827,17.800579 75.158836,18.118357   C73.519615,17.209219 72.335327,16.382093 71.635895,15.648220   C72.357040,14.158617 72.593338,12.575766 72.863556,10.582229   C70.301254,9.750995 67.705032,9.330445 65.070900,8.471594   C65.022003,5.688860 65.011002,3.344430 65.000000,1.000000  z" stroke="none" opacity="1.000000" fill="#010000"></path>
<path d="M34.000000,1.000000   C34.750000,1.000000 35.500000,1.000000 36.508202,1.421598   C36.877556,2.401794 36.988705,2.960393 37.255630,3.656738   C37.949909,3.502586 38.488419,3.210689 39.407669,2.870236   C40.809547,2.775653 41.830685,2.729624 43.243469,2.807164   C44.445625,2.966266 45.256134,3.001798 46.328468,3.023961   C46.764381,2.995155 46.938477,2.979719 47.278275,3.004283   C47.443977,3.044282 47.766464,3.090703 47.766464,3.090703   C47.766464,3.090703 48.091461,3.068680 48.230659,3.302297   C48.521049,3.635963 48.672241,3.736012 48.675957,3.907501   C48.732315,4.039627 48.936146,4.100314 49.337944,4.321021   C49.999542,4.494222 50.463169,4.507401 50.787361,4.953989   C51.106941,5.774947 51.565952,6.162497 52.095444,6.725596   C52.320744,7.133191 52.339443,7.375746 52.142311,7.711580   C52.062603,7.794349 52.071526,8.054070 52.071526,8.054070   C52.071526,8.054070 52.341579,7.746588 52.608654,7.685950   C53.689266,7.844938 54.502800,8.064562 55.608856,8.558445   C56.323700,9.153587 56.746025,9.474470 57.117844,10.095753   C57.045185,10.598015 57.023022,10.799877 57.000359,11.251778   C56.999760,11.668506 56.999672,11.835196 57.021286,12.364203   C57.361042,14.131407 57.679092,15.536295 57.650589,16.889317   C54.868118,15.583071 52.432201,14.328693 49.648293,12.977095   C46.537098,11.918022 43.773884,10.956169 40.750114,9.796303   C38.339428,10.075998 36.189293,10.553707 33.756012,10.852978   C32.633106,9.193791 31.793344,7.713044 31.286097,6.038561   C32.475468,4.741723 33.332329,3.638621 34.163734,2.254801   C34.081947,1.794814 34.025608,1.615546 33.881508,1.320485   C33.793755,1.204692 34.000000,1.000000 34.000000,1.000000  z" stroke="none" opacity="1.000000" fill="#E2B946"></path>
<path d="M17.000000,81.000000   C11.777751,81.000000 6.555501,81.000000 1.000000,81.000000   C1.000000,78.673706 1.000000,76.331581 1.416857,73.422966   C5.355501,71.934578 8.877287,71.012680 12.444596,70.083862   C12.490119,70.076935 12.505323,69.976913 12.777505,70.248184   C14.033024,70.734123 15.016360,70.948776 16.074915,71.451904   C16.416321,72.037704 16.682508,72.335037 16.912647,72.629745   C16.876596,72.627129 16.863010,72.698128 16.905117,73.160187   C16.964815,76.081505 16.982407,78.540749 17.000000,81.000000  z" stroke="none" opacity="1.000000" fill="#010101"></path>
<path d="M81.000000,71.000000   C81.000000,74.275505 81.000000,77.551003 81.000000,81.000000   C75.981667,81.000000 70.962036,81.000000 65.470360,80.563766   C65.054222,77.545898 65.110130,74.964256 65.507919,72.231880   C67.224564,71.665886 68.599335,71.250633 70.308533,71.010376   C72.950890,71.436913 75.255569,71.826591 77.568130,71.881020   C78.704544,71.907761 79.855583,71.313324 81.000000,71.000000  z" stroke="none" opacity="1.000000" fill="#020102"></path>
<path d="M1.000000,9.000000   C1.000000,6.383534 1.000000,3.767068 1.000000,1.000000   C6.018550,1.000000 11.038077,1.000000 16.528608,1.435061   C16.984304,4.181741 16.968996,6.493360 16.627697,8.875517   C15.864772,9.020059 15.427834,9.094064 14.570122,9.111216   C12.454650,9.085781 10.759952,9.117200 8.619678,9.094887   C5.782736,9.027438 3.391368,9.013719 1.000000,9.000000  z" stroke="none" opacity="1.000000" fill="#000000"></path>
<path d="M81.000000,25.000000   C81.000000,36.020893 81.000000,47.041790 80.679520,58.529724   C79.932251,58.989223 79.505463,58.981682 79.054840,58.620544   C78.688950,57.173553 78.346901,56.080166 78.035545,54.519753   C78.113770,44.699589 78.161301,35.346447 78.363472,25.843960   C78.711006,25.480721 78.883141,25.251263 79.362091,25.005283   C80.126450,25.002890 80.563225,25.001444 81.000000,25.000000  z" stroke="none" opacity="1.000000" fill="#9D9C93"></path>
<path d="M16.953686,8.804978   C16.968996,6.493360 16.984304,4.181741 16.999805,1.435061   C19.370558,1.000000 21.741116,1.000000 24.556158,1.413745   C25.017801,3.206210 25.034960,4.584929 25.251163,6.204375   C26.036442,6.640092 26.622675,6.835083 26.975731,7.266338   C24.785460,8.844512 22.828365,10.186419 20.534115,11.603836   C19.968895,11.709005 19.740833,11.738666 19.484901,11.729651   C19.457031,11.690978 19.519836,11.769948 19.078384,11.880700   C18.356253,12.106708 18.075571,12.221962 17.603252,12.119011   C17.325581,11.524782 17.239546,11.148757 17.188528,10.441221   C17.133591,9.674800 17.043638,9.239889 16.953686,8.804978  z" stroke="none" opacity="1.000000" fill="#656660"></path>
<path d="M12.399074,70.090790   C8.877287,71.012680 5.355501,71.934578 1.416857,72.928238   C1.000000,70.629440 1.000000,68.258888 1.419506,65.440384   C2.955372,64.937172 4.071732,64.881889 5.504835,64.876404   C6.248491,64.891441 6.675405,64.856682 7.437772,64.934311   C9.144280,65.974388 10.515336,66.902077 11.909503,67.912369   C11.932614,67.994965 12.026710,68.138390 12.062920,68.467468   C12.199110,69.227959 12.299091,69.659378 12.399074,70.090790  z" stroke="none" opacity="1.000000" fill="#454C48"></path>
<path d="M17.444164,81.000000   C16.982407,78.540749 16.964815,76.081505 16.946980,73.176910   C16.946737,72.731575 17.071598,72.724670 17.401344,72.348694   C17.784489,71.643623 17.837883,71.314537 17.938965,70.713394   C18.047562,70.267578 18.108471,70.093811 18.473381,70.083916   C20.820553,71.241127 22.863722,72.234474 24.979309,73.537498   C25.155777,74.256752 25.259829,74.666321 25.261406,75.455345   C25.157934,76.886620 25.156937,77.938438 25.100967,79.322372   C25.030663,80.102997 25.015331,80.551498 25.000000,81.000000   C22.629442,81.000000 20.258884,81.000000 17.444164,81.000000  z" stroke="none" opacity="1.000000" fill="#423E3B"></path>
<path d="M65.166039,72.382622   C65.110130,74.964256 65.054222,77.545898 64.999161,80.563766   C62.629444,81.000000 60.258884,81.000000 57.440620,80.599701   C56.856403,78.621887 56.719887,77.044365 56.628853,75.092636   C57.455242,73.793381 58.236141,72.868332 59.321609,71.937477   C60.383553,71.644913 61.140930,71.358162 62.054008,71.402466   C62.636391,71.871002 63.063076,72.008476 63.506683,72.150345   C63.523609,72.154739 63.559929,72.170082 63.938568,72.396172   C64.600151,72.542381 64.883095,72.462502 65.166039,72.382622  z" stroke="none" opacity="1.000000" fill="#404244"></path>
<path d="M57.168346,9.795353   C56.746025,9.474470 56.323700,9.153587 55.933956,8.360931   C56.311020,5.592773 56.655510,3.296386 57.000000,1.000000   C59.370556,1.000000 61.741116,1.000000 64.555832,1.000000   C65.011002,3.344430 65.022003,5.688860 64.817245,8.538191   C64.219910,9.350299 63.838322,9.657506 63.125858,10.065496   C62.348446,10.091816 61.901901,10.017352 61.250832,9.805596   C60.757618,9.508062 60.452030,9.392551 59.928627,9.128332   C58.981171,9.227118 58.234619,9.519343 57.409225,9.786089   C57.330383,9.760609 57.168346,9.795354 57.168346,9.795353  z" stroke="none" opacity="1.000000" fill="#5E5E5E"></path>
<path d="M1.000000,9.444163   C3.391368,9.013719 5.782736,9.027438 8.602510,9.506382   C9.662056,11.703875 10.293196,13.436144 10.670532,15.564577   C9.185422,16.620501 7.954114,17.280260 6.587070,17.714352   C5.941654,17.385086 5.431973,17.281485 4.532979,17.125660   C3.095777,17.048958 2.047888,17.024479 1.000000,17.000000   C1.000000,14.629442 1.000000,12.258885 1.000000,9.444163  z" stroke="none" opacity="1.000000" fill="#616061"></path>
<path d="M81.000000,70.666672   C79.855583,71.313324 78.704544,71.907761 77.568130,71.881020   C75.255569,71.826591 72.950890,71.436913 70.332794,70.696503   C70.054375,69.789124 70.086121,69.370613 70.252289,68.848564   C70.559387,68.593719 70.689484,68.411926 70.845245,68.027969   C70.913521,67.856300 71.089874,67.531601 71.335342,67.482086   C71.993439,67.185593 72.406067,66.938606 73.080620,66.525909   C74.005196,65.844147 74.667854,65.328102 75.607254,64.862701   C76.256035,64.962685 76.628090,65.012032 77.013512,65.437126   C78.351257,66.875252 79.675629,67.937630 81.000000,69.000000   C81.000000,69.444443 81.000000,69.888893 81.000000,70.666672  z" stroke="none" opacity="1.000000" fill="#797B7A"></path>
<path d="M56.550018,1.000000   C56.655510,3.296386 56.311020,5.592773 55.641434,8.086674   C54.502800,8.064562 53.689266,7.844938 52.568344,7.667082   C52.260963,7.708851 52.222023,7.628810 52.222023,7.628810   C52.339443,7.375746 52.320744,7.133191 52.034485,6.331326   C51.577637,5.347865 51.252220,4.934223 50.926800,4.520580   C50.463169,4.507401 49.999542,4.494222 49.258926,4.239669   C48.981941,3.998296 48.823429,3.836061 48.823429,3.836061   C48.672241,3.736012 48.521049,3.635963 48.393478,3.065975   C48.278065,2.064023 48.139034,1.532012 48.000000,1.000000   C50.700012,1.000000 53.400028,1.000000 56.550018,1.000000  z" stroke="none" opacity="1.000000" fill="#85847F"></path>
<path d="M1.000000,57.000000   C1.000000,49.645748 1.000000,42.291500 1.282325,34.470104   C1.941056,34.007923 2.317462,34.012882 2.757282,34.482208   C2.855137,42.398182 2.889577,49.849792 2.775043,57.417183   C2.422143,57.681553 2.206407,57.810356 1.837639,57.744247   C1.495076,57.341736 1.262937,57.152031 1.000000,57.000000  z" stroke="none" opacity="1.000000" fill="#A2A2A2"></path>
<path d="M56.583374,75.466843   C56.719887,77.044365 56.856403,78.621887 56.996460,80.599701   C53.638653,81.000000 50.277309,81.000000 46.633324,80.494644   C46.549419,79.693176 46.748150,79.397072 47.041214,78.995728   C50.284821,77.749268 53.434097,76.608055 56.583374,75.466843  z" stroke="none" opacity="1.000000" fill="#93908A"></path>
<path d="M25.456848,81.000000   C25.015331,80.551498 25.030663,80.102997 25.414146,79.167892   C26.146324,77.619644 26.510349,76.557999 27.127972,75.529175   C27.829823,75.810875 28.278074,76.059746 28.742226,76.542450   C29.785637,77.246605 30.813147,77.716942 32.169834,78.185928   C33.513420,78.527946 34.527828,78.871330 35.622452,79.511475   C35.801781,80.205482 35.900890,80.602745 36.000000,81.000000   C32.637897,81.000000 29.275797,81.000000 25.456848,81.000000  z" stroke="none" opacity="1.000000" fill="#8F8C98"></path>
<path d="M25.052116,5.963649   C25.034960,4.584929 25.017801,3.206210 25.000320,1.413745   C26.714163,1.000000 28.428328,1.000000 30.571503,1.348225   C31.008209,2.390481 31.015905,3.084510 30.754646,4.018557   C28.674501,4.826932 26.863310,5.395290 25.052116,5.963649  z" stroke="none" opacity="1.000000" fill="#88898E"></path>
<path d="M1.978859,57.919373   C2.206407,57.810356 2.422143,57.681553 2.980430,57.377419   C3.334793,57.221870 3.744926,57.148655 3.817973,57.135109   C3.891019,57.121563 4.012733,57.036339 3.974618,57.286049   C3.971180,57.700546 4.005857,57.865341 3.997183,58.414459   C4.346420,60.257385 4.739010,61.715977 5.166519,63.327145   C5.201438,63.479717 5.308650,63.773827 5.270068,64.036057   C5.217021,64.474396 5.202557,64.650497 5.188092,64.826607   C4.071732,64.881889 2.955372,64.937172 1.419506,64.996223   C1.000000,63.933331 1.000000,62.866661 1.200654,61.138176   C1.593824,59.624031 1.786341,58.771702 1.978859,57.919373  z" stroke="none" opacity="1.000000" fill="#99988E"></path>
<path d="M2.693868,34.017841   C2.317462,34.012882 1.941056,34.007923 1.282325,34.001480   C1.000000,31.299038 1.000000,28.598076 1.294677,25.450050   C1.982198,25.010218 2.375042,25.017448 2.814339,25.470961   C2.805152,28.617441 2.749510,31.317642 2.693868,34.017841  z" stroke="none" opacity="1.000000" fill="#A6A19D"></path>
<path d="M75.613777,18.200371   C77.161827,17.800579 78.709885,17.400787 80.628967,17.000500   C81.000000,17.444445 81.000000,17.888889 80.711060,18.759102   C79.936745,19.786955 79.451385,20.389040 78.651855,21.072216   C78.130135,21.215124 77.922585,21.276937 77.454559,21.208796   C76.667320,20.119350 76.140549,19.159861 75.613777,18.200371  z" stroke="none" opacity="1.000000" fill="#8F9591"></path>
<path d="M1.000000,17.399883   C2.047888,17.024479 3.095777,17.048958 4.546468,17.431074   C4.968520,18.197256 4.987769,18.605803 4.990910,19.344730   C5.001823,20.113945 5.028844,20.552774 5.062274,21.009525   C5.068683,21.027445 5.037121,21.048719 4.748599,21.003286   C4.268122,20.990364 4.076167,21.022873 3.524000,21.038090   C2.442524,21.013865 1.721262,21.006931 1.000000,21.000000   C1.000000,19.933254 1.000000,18.866510 1.000000,17.399883  z" stroke="none" opacity="1.000000" fill="#989396"></path>
<path d="M81.000000,68.600006   C79.675629,67.937630 78.351257,66.875252 77.413376,65.417519   C78.866585,65.014771 79.933289,65.007385 81.000000,65.000000   C81.000000,66.066673 81.000000,67.133339 81.000000,68.600006  z" stroke="none" opacity="1.000000" fill="#767E72"></path>
<path d="M81.000000,64.666664   C79.933289,65.007385 78.866585,65.014771 77.400009,65.041763   C76.628090,65.012032 76.256035,64.962685 75.480492,64.660782   C74.907990,63.968616 74.738983,63.529022 74.818237,63.105614   C75.536171,62.926506 76.005844,62.731209 76.920494,62.634991   C78.576973,62.822712 79.788490,62.911358 81.000000,63.000000   C81.000000,63.444443 81.000000,63.888885 81.000000,64.666664  z" stroke="none" opacity="1.000000" fill="#958E9A"></path>
<path d="M36.454109,81.000000   C35.900890,80.602745 35.801781,80.205482 36.070259,79.434959   C39.281635,79.148323 42.125420,79.234947 45.465996,79.287735   C46.290821,79.202919 46.618847,79.151939 46.946877,79.100967   C46.748150,79.397072 46.549419,79.693176 46.175346,80.494644   C42.969406,81.000000 39.938812,81.000000 36.454109,81.000000  z" stroke="none" opacity="1.000000" fill="#6B4C00"></path>
<path d="M42.851818,2.683595   C41.830685,2.729624 40.809547,2.775653 39.071365,2.918434   C37.936161,3.183122 37.518009,3.351057 37.099857,3.518991   C36.988705,2.960393 36.877556,2.401794 36.883202,1.421598   C38.714359,1.000000 40.428715,1.000000 42.545982,1.281344   C42.916531,1.936324 42.884174,2.309959 42.851818,2.683595  z" stroke="none" opacity="1.000000" fill="#9A6F1E"></path>
<path d="M1.000000,21.400223   C1.721262,21.006931 2.442524,21.013865 3.538413,21.421879   C3.933637,22.340290 3.954234,22.857620 3.868384,23.610497   C3.430587,24.238924 3.099236,24.631802 2.767886,25.024679   C2.375042,25.017448 1.982198,25.010218 1.294677,25.001493   C1.000000,23.933481 1.000000,22.866964 1.000000,21.400223  z" stroke="none" opacity="1.000000" fill="#9F968B"></path>
<path d="M81.000000,62.625000   C79.788490,62.911358 78.576973,62.822712 76.944534,62.414795   C76.582184,61.809620 76.628113,61.521694 76.991348,61.133614   C77.910812,60.685913 78.500343,60.336357 79.408340,59.991707   C80.151199,59.997742 80.575600,59.998871 81.000000,60.000000   C81.000000,60.750000 81.000000,61.500000 81.000000,62.625000  z" stroke="none" opacity="1.000000" fill="#929388"></path>
<path d="M78.966019,20.991125   C79.451385,20.389040 79.936745,19.786955 80.711060,19.092434   C81.000000,19.750000 81.000000,20.500000 80.742935,21.771523   C79.701759,22.892084 78.917641,23.491119 78.073654,24.092314   C78.013794,24.094471 77.905083,24.047058 77.812950,23.709946   C77.592667,23.178259 77.464523,22.983683 77.417961,22.531958   C77.638062,22.160095 77.776581,22.045383 78.122391,21.812273   C78.583389,21.497280 78.795502,21.263029 78.966019,20.991125  z" stroke="none" opacity="1.000000" fill="#9A928D"></path>
<path d="M31.023602,3.778540   C31.015905,3.084510 31.008209,2.390481 31.000256,1.348225   C31.444458,1.000000 31.888916,1.000000 32.762783,1.001292   C33.192192,1.002584 33.213680,1.193586 33.165802,1.577013   C33.103630,2.214561 33.089333,2.468683 32.861607,2.929227   C32.106651,3.349946 31.565126,3.564243 31.023602,3.778540  z" stroke="none" opacity="1.000000" fill="#938A8B"></path>
<path d="M78.133514,24.090155   C78.917641,23.491119 79.701759,22.892084 80.742935,22.146523   C81.000000,22.750000 81.000000,23.500000 81.000000,24.625000   C80.563225,25.001444 80.126450,25.002890 79.151352,24.996208   C78.613022,24.988081 78.192253,24.971809 78.161789,24.752445   C78.131332,24.533083 78.133514,24.090153 78.133514,24.090155  z" stroke="none" opacity="1.000000" fill="#929587"></path>
<path d="M47.625000,1.000000   C48.139034,1.532012 48.278065,2.064023 48.254280,2.832357   C48.091461,3.068680 47.766464,3.090703 47.766464,3.090703   C47.766464,3.090703 47.443977,3.044282 47.138062,2.831153   C46.641418,2.392862 46.428051,2.191719 45.983047,1.857965   C45.516033,1.467557 45.258015,1.233778 45.000000,1.000000   C45.750000,1.000000 46.500000,1.000000 47.625000,1.000000  z" stroke="none" opacity="1.000000" fill="#B4AB80"></path>
<path d="M44.666668,1.000000   C45.258015,1.233778 45.516033,1.467557 45.952675,2.113550   C46.109749,2.696287 46.088196,2.866809 46.066643,3.037331   C45.256134,3.001798 44.445625,2.966266 43.243469,2.807164   C42.884174,2.309959 42.916531,1.936324 42.974442,1.281344   C43.444447,1.000000 43.888889,1.000000 44.666668,1.000000  z" stroke="none" opacity="1.000000" fill="#B38A2E"></path>
<path d="M1.837638,57.744247   C1.786341,58.771702 1.593824,59.624031 1.200654,60.738182   C1.000000,59.933331 1.000000,58.866661 1.000000,57.399994   C1.262937,57.152031 1.495076,57.341736 1.837638,57.744247  z" stroke="none" opacity="1.000000" fill="#989E9E"></path>
<path d="M81.000000,59.750000   C80.575600,59.998871 80.151199,59.997742 79.398071,59.738701   C79.072456,59.311909 79.075569,59.143024 79.078682,58.974144   C79.505463,58.981682 79.932251,58.989223 80.679520,58.998383   C81.000000,59.000000 81.000000,59.500000 81.000000,59.750000  z" stroke="none" opacity="1.000000" fill="#929589"></path>
<path d="M33.213680,1.193586   C33.213680,1.193586 33.192192,1.002584 33.096096,1.001292   C33.000000,1.000000 33.500000,1.000000 33.750000,1.000000   C34.000000,1.000000 33.793755,1.204692 33.732891,1.134431   C33.672028,1.064170 33.213680,1.193586 33.213680,1.193586  z" stroke="none" opacity="1.000000" fill="#6A5712"></path>
<path d="M77.915100,21.930670   C77.776581,22.045383 77.638062,22.160095 77.184464,22.453171   C76.535820,24.067335 76.202248,25.503136 75.918808,27.409084   C75.987656,33.021942 75.903847,38.167667 76.054642,43.306503   C76.198677,48.214825 76.586945,53.115978 76.817902,58.500473   C76.576714,59.595150 76.385483,60.209637 75.998291,60.875694   C75.391541,61.647991 74.980759,62.368713 74.569977,63.089432   C74.738983,63.529022 74.907990,63.968616 75.203758,64.610130   C74.667854,65.328102 74.005196,65.844147 72.917953,66.335022   C71.902481,66.544876 71.311607,66.779907 70.395386,67.032982   C69.422722,67.124016 68.775391,67.197021 67.935333,66.967903   C66.120880,65.753395 64.499168,64.841011 63.085884,63.657639   C65.502434,60.590408 67.710564,57.794159 69.932068,54.529579   C69.958717,47.737179 69.748962,41.402645 70.044983,35.091839   C70.372177,28.116541 70.248741,21.634621 61.941746,19.133015   C61.545986,19.013834 61.300106,18.396946 61.291656,17.803041   C63.464352,16.645670 65.329819,15.697095 67.418625,14.745046   C67.941895,14.757248 68.232834,14.816863 68.913208,14.905258   C69.698280,14.624297 70.084915,14.358496 70.476440,14.048420   C70.481331,14.004146 70.460014,14.094113 70.338478,14.357864   C70.528305,14.932734 70.839676,15.243854 71.151047,15.554972   C72.335327,16.382093 73.519615,17.209219 75.158836,18.118355   C76.140549,19.159861 76.667320,20.119350 77.440414,21.378666   C77.686729,21.678493 77.915100,21.930670 77.915100,21.930670  z" stroke="none" opacity="1.000000" fill="#E4BA45"></path>
<path d="M70.460014,14.094112   C70.460014,14.094113 70.481331,14.004146 70.112900,14.084847   C69.334564,14.417172 68.924667,14.668795 68.514763,14.920418   C68.232834,14.816863 67.941895,14.757248 67.307823,14.517246   C65.801369,12.850184 64.629051,11.407448 63.456730,9.964712   C63.838322,9.657506 64.219910,9.350299 64.855148,8.976495   C67.705032,9.330445 70.301254,9.750995 72.558868,10.724440   C71.633507,12.216261 71.046761,13.155187 70.460014,14.094112  z" stroke="none" opacity="1.000000" fill="#878080"></path>
<path d="M70.338478,14.357864   C71.046761,13.155187 71.633507,12.216261 72.524948,11.135124   C72.593338,12.575766 72.357040,14.158617 71.635895,15.648221   C70.839676,15.243854 70.528305,14.932734 70.338478,14.357864  z" stroke="none" opacity="1.000000" fill="#857D75"></path>
<path d="M60.984428,18.011837   C61.300106,18.396946 61.545986,19.013834 61.941746,19.133015   C70.248741,21.634621 70.372177,28.116541 70.044983,35.091839   C69.748962,41.402645 69.958717,47.737179 69.608200,54.558804   C67.498535,55.366631 65.726128,55.676907 63.975960,55.532337   C64.316101,48.113224 64.652405,41.149727 64.944618,34.184383   C65.104904,30.363447 63.454823,29.486410 59.985214,30.980835   C57.125389,32.212616 54.103867,33.068981 50.828590,33.962097   C49.996937,32.875584 49.490685,31.918694 49.185562,30.679886   C52.756451,28.650190 56.126205,26.902412 60.360790,24.706078   C55.895687,22.086975 52.443420,20.061974 49.060837,17.679485   C49.419109,15.906101 49.707695,14.490208 49.996277,13.074315   C52.432201,14.328693 54.868118,15.583071 57.937569,17.032097   C59.375546,17.488443 60.179985,17.750141 60.984428,18.011837  z" stroke="none" opacity="1.000000" fill="#FDD453"></path>
<path d="M34.039162,11.031416   C36.189293,10.553707 38.339428,10.075998 40.747482,10.207289   C41.006073,12.185473 41.006737,13.554659 40.654976,15.013668   C36.909039,16.423111 33.515522,17.742729 29.738882,19.067921   C26.893509,18.702402 24.431255,18.331312 21.980068,17.728939   C21.991133,17.497658 22.016802,17.035276 22.383066,17.003839   C26.512608,14.992073 30.275885,13.011744 34.039162,11.031416  z" stroke="none" opacity="1.000000" fill="#FCD352"></path>
<path d="M33.756012,10.852977   C30.275885,13.011744 26.512608,14.992073 22.351095,16.605789   C21.592331,14.668893 21.231802,13.098611 20.871271,11.528328   C22.828365,10.186419 24.785460,8.844512 27.295753,7.259030   C28.883829,6.754403 29.918707,6.493349 30.953585,6.232296   C31.793344,7.713044 32.633106,9.193791 33.756012,10.852977  z" stroke="none" opacity="1.000000" fill="#E1B84A"></path>
<path d="M61.291656,17.803041   C60.179985,17.750141 59.375546,17.488443 58.284122,17.083965   C57.679092,15.536295 57.361042,14.131407 57.353390,12.363787   C58.106205,12.000253 58.548622,11.999453 59.322868,12.001517   C60.095863,12.022179 60.537022,12.039975 61.019798,12.113382   C61.061417,12.168993 61.247639,12.163556 61.247639,12.163556   C61.247639,12.163556 61.069611,11.974233 61.051350,11.870104   C61.033089,11.765975 61.010353,11.555764 61.170639,11.223635   C61.290546,10.648986 61.250164,10.406468 61.326176,10.169780   C61.442566,10.175609 61.455360,9.942888 61.455360,9.942888   C61.901901,10.017352 62.348446,10.091816 63.125858,10.065495   C64.629051,11.407448 65.801369,12.850184 67.084488,14.520720   C65.329819,15.697095 63.464352,16.645670 61.291656,17.803041  z" stroke="none" opacity="1.000000" fill="#DEBB4A"></path>
<path d="M41.007401,14.923843   C41.006737,13.554659 41.006073,12.185473 41.008041,10.405303   C43.773884,10.956169 46.537098,11.918022 49.648293,12.977095   C49.707695,14.490208 49.419109,15.906101 48.710442,17.600227   C45.862705,16.893589 43.435051,15.908716 41.007401,14.923843  z" stroke="none" opacity="1.000000" fill="#FDD358"></path>
<path d="M31.286097,6.038560   C29.918707,6.493349 28.883829,6.754403 27.528931,7.022765   C26.622675,6.835083 26.036442,6.640092 25.251163,6.204375   C26.863310,5.395290 28.674501,4.826932 30.754646,4.018557   C31.565126,3.564243 32.106651,3.349946 33.142853,2.899908   C33.821419,2.621284 34.005302,2.578401 34.189190,2.535519   C33.332329,3.638621 32.475468,4.741723 31.286097,6.038560  z" stroke="none" opacity="1.000000" fill="#948670"></path>
<path d="M37.255630,3.656738   C37.518009,3.351057 37.936161,3.183122 38.690620,2.966989   C38.488419,3.210689 37.949909,3.502586 37.255630,3.656738  z" stroke="none" opacity="1.000000" fill="#E3B856"></path>
<path d="M57.117844,10.095753   C57.168346,9.795354 57.330383,9.760609 57.771610,9.874990   C58.457565,10.022154 58.702293,10.054935 58.970566,10.081137   C58.994110,10.074557 58.997307,10.025342 59.075153,10.196286   C59.153000,10.367230 59.244385,10.731655 59.186943,10.798083   C59.129505,10.864511 59.010651,10.993823 58.675499,10.996198   C57.893852,10.999628 57.447357,11.000684 57.000862,11.001740   C57.023022,10.799877 57.045185,10.598015 57.117844,10.095753  z" stroke="none" opacity="1.000000" fill="#DEBB4A"></path>
<path d="M57.000359,11.251777   C57.447357,11.000684 57.893852,10.999628 58.669037,11.247622   C58.995491,11.663999 58.993263,11.831325 58.991035,11.998652   C58.548622,11.999453 58.106205,12.000253 57.331688,12.001471   C56.999672,11.835196 56.999760,11.668506 57.000359,11.251777  z" stroke="none" opacity="1.000000" fill="#D4B74B"></path>
<path d="M52.301270,7.727719   C52.341579,7.746588 52.071526,8.054070 52.071526,8.054070   C52.071526,8.054070 52.062603,7.794349 52.142311,7.711580   C52.222023,7.628810 52.260963,7.708851 52.301270,7.727719  z" stroke="none" opacity="1.000000" fill="#DBB642"></path>
<path d="M50.787361,4.953989   C51.252220,4.934223 51.577637,5.347865 51.964012,6.155777   C51.565952,6.162497 51.106941,5.774947 50.787361,4.953989  z" stroke="none" opacity="1.000000" fill="#765300"></path>
<path d="M46.328468,3.023961   C46.088196,2.866809 46.109749,2.696287 46.161674,2.270180   C46.428051,2.191719 46.641418,2.392862 46.972359,2.791154   C46.938477,2.979719 46.764381,2.995155 46.328468,3.023961  z" stroke="none" opacity="1.000000" fill="#BBAD5B"></path>
<path d="M34.163734,2.254801   C34.005302,2.578401 33.821419,2.621284 33.356285,2.693485   C33.089333,2.468683 33.103630,2.214561 33.165802,1.577013   C33.213680,1.193586 33.672028,1.064170 33.820648,1.250224   C34.025608,1.615546 34.081947,1.794814 34.163734,2.254801  z" stroke="none" opacity="1.000000" fill="#B2AB8E"></path>
<path d="M49.060959,4.079648   C48.936146,4.100314 48.732315,4.039627 48.675957,3.907501   C48.823429,3.836061 48.981941,3.998296 49.060959,4.079648  z" stroke="none" opacity="1.000000" fill="#85847F"></path>
<path d="M15.999698,71.163437   C15.016360,70.948776 14.033024,70.734123 12.856255,69.939987   C12.793701,69.193260 12.924582,69.026024 13.278139,68.997360   C13.650458,69.227936 13.800101,69.319946 14.190096,69.591232   C15.205525,69.974937 15.980603,70.179344 16.901001,70.564377   C17.046320,70.744995 17.445229,70.981285 17.081747,71.010162   C16.478745,71.080498 16.239222,71.121964 15.999698,71.163437  z" stroke="none" opacity="1.000000" fill="#9B8C7F"></path>
<path d="M13.055461,68.858780   C12.924582,69.026024 12.793701,69.193260 12.584072,69.668709   C12.505323,69.976913 12.490119,70.076935 12.444596,70.083862   C12.299091,69.659378 12.199110,69.227959 12.315819,68.430214   C12.701825,68.050354 12.871142,68.036835 13.046066,68.231995   C13.051671,68.440681 13.055461,68.858780 13.055461,68.858780  z" stroke="none" opacity="1.000000" fill="#755915"></path>
<path d="M16.074915,71.451904   C16.239222,71.121964 16.478745,71.080498 17.190666,70.999908   C17.663067,70.960777 17.891277,70.985443 17.891277,70.985443   C17.837883,71.314537 17.784489,71.643623 17.384403,72.313896   C17.037714,72.655075 16.948694,72.632362 16.948696,72.632362   C16.682508,72.335037 16.416321,72.037704 16.074915,71.451904  z" stroke="none" opacity="1.000000" fill="#8F7B40"></path>
<path d="M16.912645,72.629745   C16.948694,72.632362 17.037714,72.655075 17.054657,72.689873   C17.071598,72.724670 16.946737,72.731575 16.904873,72.714851   C16.863010,72.698128 16.876596,72.627129 16.912645,72.629745  z" stroke="none" opacity="1.000000" fill="#755915"></path>
<path d="M68.128059,67.270027   C68.775391,67.197021 69.422722,67.124016 70.478043,67.169060   C70.886040,67.287102 71.089874,67.531601 71.089874,67.531601   C71.089874,67.531601 70.913521,67.856300 70.707779,68.125107   C70.330521,68.550049 70.202461,68.736115 70.117874,68.952110   C70.086121,69.370613 70.054375,69.789124 69.998367,70.521500   C68.599335,71.250633 67.224564,71.665886 65.507919,72.231880   C64.883095,72.462502 64.600151,72.542381 64.048538,72.105972   C63.832695,71.390121 63.885521,71.190567 64.046875,70.818184   C64.155411,70.645355 64.333008,70.277863 64.564468,70.075043   C65.906631,69.004829 67.017349,68.137428 68.128059,67.270027  z" stroke="none" opacity="1.000000" fill="#8C887C"></path>
<path d="M10.924335,15.168412   C10.293196,13.436144 9.662056,11.703875 9.048084,9.560112   C10.759952,9.117200 12.454650,9.085781 14.678003,9.383231   C15.855610,10.065644 16.504560,10.419188 17.153513,10.772732   C17.239546,11.148757 17.325581,11.524782 17.559685,12.216089   C17.707754,12.531370 17.543249,12.955934 17.357538,12.700644   C16.764067,12.796874 16.356306,13.148396 15.696021,13.589998   C13.937110,14.176191 12.430722,14.672302 10.924335,15.168412  z" stroke="none" opacity="1.000000" fill="#8E898B"></path>
<path d="M17.188528,10.441221   C16.504560,10.419188 15.855610,10.065644 15.098777,9.440084   C15.427834,9.094064 15.864772,9.020059 16.627697,8.875517   C17.043638,9.239889 17.133591,9.674800 17.188528,10.441221  z" stroke="none" opacity="1.000000" fill="#838883"></path>
<path d="M76.867859,58.020283   C76.586945,53.115978 76.198677,48.214825 76.054642,43.306503   C75.903847,38.167667 75.987656,33.021942 75.992218,27.106457   C76.645370,25.571476 77.275223,24.809267 77.905083,24.047058   C77.905083,24.047058 78.013794,24.094471 78.073654,24.092312   C78.133514,24.090153 78.131332,24.533083 78.132492,25.008480   C78.158714,25.653688 78.183769,25.823500 78.208824,25.993309   C78.161301,35.346447 78.113770,44.699589 77.772064,54.729881   C77.274544,56.278114 77.071205,57.149200 76.867859,58.020283  z" stroke="none" opacity="1.000000" fill="#927317"></path>
<path d="M76.817902,58.500473   C77.071205,57.149200 77.274544,56.278114 77.741364,55.196903   C78.346901,56.080166 78.688950,57.173553 79.054840,58.620544   C79.075569,59.143024 79.072456,59.311909 79.079605,59.733795   C78.500343,60.336357 77.910812,60.685913 76.884827,61.021324   C76.448380,61.007175 76.194260,60.824123 76.194260,60.824123   C76.385483,60.209637 76.576714,59.595150 76.817902,58.500473  z" stroke="none" opacity="1.000000" fill="#9E9D7A"></path>
<path d="M78.363472,25.843960   C78.183769,25.823500 78.158714,25.653688 78.162956,25.227844   C78.192253,24.971809 78.613022,24.988081 78.823769,24.997158   C78.883141,25.251263 78.711006,25.480721 78.363472,25.843960  z" stroke="none" opacity="1.000000" fill="#9E9D7A"></path>
<path d="M10.670532,15.564577   C12.430722,14.672302 13.937110,14.176191 16.073879,13.393046   C16.983925,13.055985 17.263588,13.005960 17.543249,12.955934   C17.543249,12.955934 17.707754,12.531370 17.751324,12.434293   C18.075571,12.221962 18.356253,12.106708 19.075260,11.911231   C19.513586,11.831010 19.512770,11.768325 19.512770,11.768325   C19.740833,11.738666 19.968895,11.709005 20.534115,11.603836   C21.231802,13.098611 21.592331,14.668893 21.984831,16.637226   C22.016802,17.035276 21.991133,17.497658 21.633148,17.805811   C18.502331,20.074917 15.729496,22.035870 12.620655,24.028019   C10.856709,25.372627 9.428770,26.686037 7.694216,28.000643   C6.978783,28.003918 6.569965,28.006001 6.106305,27.633226   C5.999996,26.502563 5.948529,25.746758 5.914778,24.695297   C5.635577,23.933468 5.338661,23.467289 5.037977,22.992233   C5.034209,22.983355 5.034800,22.964031 5.175593,22.652695   C5.223298,21.910479 5.130209,21.479599 5.037121,21.048719   C5.037121,21.048719 5.068683,21.027445 5.359705,20.932453   C5.888919,20.502188 6.127111,20.166918 6.466873,19.605764   C6.619898,18.899927 6.671352,18.419973 6.722806,17.940018   C7.954114,17.280260 9.185422,16.620501 10.670532,15.564577  z" stroke="none" opacity="1.000000" fill="#E0B943"></path>
<path d="M19.484901,11.729651   C19.512770,11.768325 19.513586,11.831010 19.516712,11.800479   C19.519836,11.769948 19.457031,11.690978 19.484901,11.729651  z" stroke="none" opacity="1.000000" fill="#8E898B"></path>
<path d="M5.308649,63.773827   C5.308650,63.773827 5.201438,63.479717 5.371370,63.094620   C5.771109,62.138718 6.000916,61.567913 6.565186,60.959229   C8.917385,59.949108 10.935122,58.976875 13.115776,58.306267   C18.852940,61.759228 24.427189,64.910561 29.797754,68.331619   C28.031679,70.143501 26.469284,71.685661 24.906891,73.227814   C22.863722,72.234474 20.820553,71.241127 18.445759,70.061035   C18.114136,69.874290 18.047691,69.891495 17.926739,69.709305   C17.612299,69.299950 17.373875,69.139626 16.789532,68.985260   C16.079168,68.924980 15.669792,68.925583 15.093746,68.723724   C14.638852,68.327454 14.350626,68.133636 13.830961,67.707825   C13.028480,67.593811 12.457436,67.711792 11.886392,67.829773   C10.515336,66.902077 9.144280,65.974388 7.238786,64.762192   C6.239115,64.243065 5.773881,64.008446 5.308649,63.773827  z" stroke="none" opacity="1.000000" fill="#E3B945"></path>
<path d="M11.909503,67.912369   C12.457436,67.711792 13.028480,67.593811 13.575543,67.726578   C13.381196,67.992661 13.210828,68.007980 13.040461,68.023308   C12.871142,68.036835 12.701825,68.050354 12.279609,68.101135   C12.026710,68.138390 11.932614,67.994965 11.909503,67.912369  z" stroke="none" opacity="1.000000" fill="#6E5A2C"></path>
<path d="M5.270067,64.036057   C5.773881,64.008446 6.239115,64.243065 6.903333,64.649811   C6.675405,64.856682 6.248491,64.891441 5.504835,64.876404   C5.202557,64.650497 5.217021,64.474396 5.270067,64.036057  z" stroke="none" opacity="1.000000" fill="#B79624"></path>
<path d="M24.979309,73.537498   C26.469284,71.685661 28.031679,70.143501 30.094299,68.495087   C34.290165,72.439079 38.854130,73.318634 44.079918,72.428337   C44.427364,74.971001 44.698280,77.146294 44.969200,79.321579   C42.125420,79.234947 39.281635,79.148323 35.990044,79.138199   C34.527828,78.871330 33.513420,78.527946 32.034760,77.922897   C30.622448,77.210358 29.674387,76.759491 28.726326,76.308624   C28.278074,76.059746 27.829823,75.810875 27.003139,75.349869   C26.204432,75.117126 25.784155,75.096504 25.363880,75.075890   C25.259829,74.666321 25.155777,74.256752 24.979309,73.537498  z" stroke="none" opacity="1.000000" fill="#E2B94A"></path>
<path d="M25.261406,75.455345   C25.784155,75.096504 26.204432,75.117126 26.749540,75.317055   C26.510349,76.557999 26.146324,77.619644 25.469120,78.835770   C25.156937,77.938438 25.157934,76.886620 25.261406,75.455345  z" stroke="none" opacity="1.000000" fill="#8C9088"></path>
<path d="M17.938965,70.713394   C17.891277,70.985443 17.663067,70.960777 17.554148,70.971031   C17.445229,70.981285 17.046320,70.744995 16.974579,70.448700   C16.902840,70.152412 17.065140,69.932564 17.310776,69.922241   C17.556410,69.911911 18.047691,69.891495 18.047691,69.891495   C18.047691,69.891495 18.114136,69.874290 18.141758,69.897171   C18.108471,70.093811 18.047562,70.267578 17.938965,70.713394  z" stroke="none" opacity="1.000000" fill="#9D8220"></path>
<path d="M45.465996,79.287735   C44.698280,77.146294 44.427364,74.971001 44.428177,72.336395   C48.449493,70.576202 52.199074,69.275345 56.227074,68.144638   C57.342670,69.524284 58.179859,70.733788 59.017044,71.943283   C58.236141,72.868332 57.455242,73.793381 56.628857,75.092636   C53.434097,76.608055 50.284821,77.749268 47.041214,78.995728   C46.618847,79.151939 46.290821,79.202919 45.465996,79.287735  z" stroke="none" opacity="1.000000" fill="#E2B848"></path>
<path d="M59.321609,71.937477   C58.179859,70.733788 57.342670,69.524284 56.322990,67.805145   C58.386147,66.173210 60.631802,65.050911 62.877453,63.928619   C64.499168,64.841011 66.120880,65.753395 67.935333,66.967903   C67.017349,68.137428 65.906631,69.004829 64.224129,69.998016   C63.085327,70.411148 62.518322,70.698509 61.926182,70.999893   C61.901047,71.013908 61.898308,71.071404 61.898308,71.071404   C61.140930,71.358162 60.383553,71.644913 59.321609,71.937477  z" stroke="none" opacity="1.000000" fill="#E4B84A"></path>
<path d="M63.489758,72.145950   C63.063076,72.008476 62.636391,71.871002 62.054008,71.402466   C61.898308,71.071404 61.901047,71.013908 62.112984,71.037674   C62.324917,71.061447 62.703857,71.102699 62.894283,71.368073   C63.219727,71.804283 63.354744,71.975121 63.489758,72.145950  z" stroke="none" opacity="1.000000" fill="#A18D4C"></path>
<path d="M63.506683,72.150345   C63.354744,71.975121 63.219727,71.804283 63.203606,71.338501   C63.527786,71.026039 63.733067,71.008522 63.938343,70.991013   C63.885521,71.190567 63.832695,71.390121 63.669899,71.879883   C63.559929,72.170082 63.523609,72.154739 63.506683,72.150345  z" stroke="none" opacity="1.000000" fill="#7B6207"></path>
<path d="M58.947021,10.087717   C58.702293,10.054935 58.457565,10.022154 57.850456,9.900470   C58.234619,9.519343 58.981171,9.227118 59.710377,9.226448   C59.423965,9.681207 59.175293,9.871111 58.947021,10.087717  z" stroke="none" opacity="1.000000" fill="#7B6207"></path>
<path d="M58.970566,10.081137   C59.175293,9.871111 59.423965,9.681207 59.911285,9.419888   C60.452030,9.392551 60.757618,9.508062 61.250832,9.805595   C61.455360,9.942888 61.442566,10.175609 60.961212,10.083121   C59.985672,10.002203 59.491489,10.013773 58.997307,10.025342   C58.997307,10.025342 58.994110,10.074557 58.970566,10.081137  z" stroke="none" opacity="1.000000" fill="#A45024"></path>
<path d="M6.587070,17.714354   C6.671352,18.419973 6.619898,18.899927 6.263192,19.434227   C5.640966,19.330500 5.323992,19.172424 5.007018,19.014347   C4.987769,18.605803 4.968520,18.197256 4.935781,17.483297   C5.431973,17.281485 5.941654,17.385086 6.587070,17.714354  z" stroke="none" opacity="1.000000" fill="#9C967E"></path>
<path d="M71.335342,67.482086   C71.089874,67.531601 70.886040,67.287102 70.803383,67.151024   C71.311607,66.779907 71.902481,66.544876 72.656036,66.500732   C72.406067,66.938606 71.993439,67.185593 71.335342,67.482086  z" stroke="none" opacity="1.000000" fill="#928774"></path>
<path d="M70.252281,68.848564   C70.202461,68.736115 70.330521,68.550049 70.639511,68.296783   C70.689484,68.411926 70.559387,68.593719 70.252281,68.848564  z" stroke="none" opacity="1.000000" fill="#928774"></path>
<path d="M2.814340,25.470961   C3.099236,24.631802 3.430587,24.238924 4.144186,23.534100   C4.695890,23.136112 4.865345,23.050072 5.034800,22.964031   C5.034800,22.964031 5.034209,22.983355 4.916936,23.285028   C4.757143,24.003050 4.714624,24.419399 4.532643,25.219574   C4.350978,28.412367 4.308774,31.221333 4.215717,34.494282   C4.024885,42.355061 3.884906,49.751858 3.744926,57.148655   C3.744926,57.148655 3.334793,57.221870 3.129405,57.261635   C2.889577,49.849792 2.855137,42.398182 2.757282,34.482208   C2.749510,31.317642 2.805152,28.617441 2.814340,25.470961  z" stroke="none" opacity="1.000000" fill="#C09D62"></path>
<path d="M28.742228,76.542450   C29.674387,76.759491 30.622448,77.210358 31.705584,77.924255   C30.813147,77.716942 29.785637,77.246605 28.742228,76.542450  z" stroke="none" opacity="1.000000" fill="#8C9088"></path>
<path d="M3.817973,57.135109   C3.884906,49.751858 4.024885,42.355061 4.477251,34.489830   C5.140234,34.018520 5.490830,34.015652 5.889123,34.478416   C6.012161,42.290211 6.087503,49.636368 6.110431,57.382446   C6.115585,58.853947 6.173154,59.925529 6.230722,60.997112   C6.000916,61.567913 5.771109,62.138718 5.336451,62.942047   C4.739010,61.715977 4.346420,60.257385 4.088856,58.299820   C4.340215,57.498741 4.269833,57.243904 4.012733,57.036339   C4.012733,57.036339 3.891019,57.121563 3.817973,57.135109  z" stroke="none" opacity="1.000000" fill="#9A710D"></path>
<path d="M3.974618,57.286049   C4.269833,57.243904 4.340215,57.498741 4.132208,57.915489   C4.005857,57.865341 3.971180,57.700546 3.974618,57.286049  z" stroke="none" opacity="1.000000" fill="#A3761E"></path>
<path d="M78.122391,21.812273   C77.915100,21.930670 77.686729,21.678493 77.700882,21.508621   C77.922585,21.276937 78.130135,21.215124 78.651855,21.072216   C78.795502,21.263029 78.583389,21.497280 78.122391,21.812273  z" stroke="none" opacity="1.000000" fill="#9E9D7A"></path>
<path d="M4.990910,19.344730   C5.323992,19.172424 5.640966,19.330500 6.161622,19.660110   C6.127111,20.166918 5.888919,20.502188 5.353296,20.914532   C5.028844,20.552774 5.001823,20.113945 4.990910,19.344730  z" stroke="none" opacity="1.000000" fill="#9E7623"></path>
<path d="M5.175593,22.652695   C4.865345,23.050072 4.695890,23.136112 4.250633,23.298552   C3.954234,22.857620 3.933637,22.340290 3.898627,21.439171   C4.076167,21.022873 4.268122,20.990364 4.748598,21.003286   C5.130209,21.479599 5.223298,21.910479 5.175593,22.652695  z" stroke="none" opacity="1.000000" fill="#9A7616"></path>
<path d="M75.998291,60.875694   C76.194260,60.824123 76.448380,61.007175 76.554901,61.119465   C76.628113,61.521694 76.582184,61.809620 76.499573,62.315720   C76.005844,62.731209 75.536171,62.926506 74.818230,63.105621   C74.980759,62.368713 75.391541,61.647991 75.998291,60.875694  z" stroke="none" opacity="1.000000" fill="#E6BE4F"></path>
<path d="M77.812950,23.709946   C77.275223,24.809267 76.645370,25.571476 75.942093,26.636311   C76.202248,25.503136 76.535820,24.067335 77.102890,22.710320   C77.464523,22.983683 77.592667,23.178259 77.812950,23.709946  z" stroke="none" opacity="1.000000" fill="#E6BE4F"></path>
<path d="M63.085884,63.657639   C60.631802,65.050911 58.386147,66.173210 56.044579,67.634995   C52.199074,69.275345 48.449493,70.576202 44.351654,71.969009   C38.854130,73.318634 34.290165,72.439079 30.297981,68.225357   C24.427189,64.910561 18.852940,61.759228 12.990345,57.985264   C12.490526,56.244164 12.279056,55.125690 12.393484,54.082512   C14.175417,54.761093 15.631449,55.364380 17.399521,56.128815   C24.459396,59.183857 31.207235,62.077755 38.240288,65.142883   C40.457527,67.025124 42.296310,67.125320 44.380386,64.973991   C51.154362,61.963123 57.554043,58.975155 63.953724,55.987183   C65.726128,55.676907 67.498535,55.366631 69.594818,55.027134   C67.710564,57.794159 65.502434,60.590408 63.085884,63.657639  z" stroke="none" opacity="1.000000" fill="#FCD254"></path>
<path d="M68.913208,14.905258   C68.924667,14.668795 69.334564,14.417172 70.108002,14.129122   C70.084915,14.358496 69.698280,14.624297 68.913208,14.905258  z" stroke="none" opacity="1.000000" fill="#85762C"></path>
<path d="M63.975960,55.532341   C57.554043,58.975155 51.154362,61.963123 44.371582,64.516312   C43.949993,60.722218 43.911499,57.362904 43.901894,53.537685   C43.956802,48.382153 43.982822,43.692532 44.346397,38.924915   C46.840637,37.261856 48.997318,35.676785 51.153999,34.091713   C54.103867,33.068981 57.125389,32.212616 59.985214,30.980835   C63.454823,29.486410 65.104904,30.363447 64.944618,34.184383   C64.652405,41.149727 64.316101,48.113224 63.975960,55.532341  z" stroke="none" opacity="1.000000" fill="#E3B947"></path>
<path d="M40.654976,15.013668   C43.435051,15.908716 45.862705,16.893589 48.640755,17.957718   C52.443420,20.061974 55.895687,22.086975 60.360790,24.706078   C56.126205,26.902412 52.756451,28.650190 48.827766,30.762798   C43.150383,34.370674 38.067032,33.793541 32.760117,30.748285   C29.327959,28.338430 26.139853,26.167652 23.190645,23.759686   C25.660362,22.035780 27.891182,20.549065 30.122004,19.062349   C33.515522,17.742729 36.909039,16.423111 40.654976,15.013668  z" stroke="none" opacity="1.000000" fill="#E3B946"></path>
<path d="M33.004166,30.987360   C38.067032,33.793541 43.150383,34.370674 48.626633,31.044716   C49.490685,31.918694 49.996937,32.875584 50.828590,33.962093   C48.997318,35.676785 46.840637,37.261856 43.963661,38.949677   C41.484886,39.372219 39.726406,39.692009 37.685280,39.834614   C35.272083,38.420601 33.141533,37.183769 31.083881,35.620605   C31.772572,33.858631 32.388367,32.422993 33.004166,30.987360  z" stroke="none" opacity="1.000000" fill="#FDD257"></path>
<path d="M29.738882,19.067921   C27.891182,20.549065 25.660362,22.035780 22.830427,23.685986   C18.850983,24.565512 15.470653,25.281551 12.193689,25.745113   C12.516924,24.994034 12.736793,24.495426 12.956661,23.996820   C15.729496,22.035870 18.502331,20.074917 21.622086,18.037094   C24.431255,18.331312 26.893509,18.702402 29.738882,19.067921  z" stroke="none" opacity="1.000000" fill="#FCD254"></path>
<path d="M59.322868,12.001516   C58.993263,11.831325 58.995491,11.663999 59.004189,11.245247   C59.010651,10.993823 59.129505,10.864511 59.511688,10.870199   C60.266033,11.102512 60.638191,11.329138 61.010353,11.555764   C61.010353,11.555764 61.033089,11.765975 61.026047,11.888309   C61.019001,12.010644 60.978184,12.057772 60.978184,12.057772   C60.537022,12.039975 60.095863,12.022179 59.322868,12.001516  z" stroke="none" opacity="1.000000" fill="#E3B856"></path>
<path d="M61.170639,11.223635   C60.638191,11.329138 60.266033,11.102512 59.569130,10.803771   C59.244385,10.731655 59.153000,10.367230 59.075153,10.196286   C59.491489,10.013773 59.985672,10.002203 60.844818,10.077292   C61.250164,10.406468 61.290546,10.648986 61.170639,11.223635  z" stroke="none" opacity="1.000000" fill="#7F4100"></path>
<path d="M61.044304,11.992438   C61.069611,11.974233 61.247639,12.163556 61.247639,12.163556   C61.247639,12.163556 61.061417,12.168993 61.019798,12.113382   C60.978184,12.057772 61.019001,12.010644 61.044304,11.992438  z" stroke="none" opacity="1.000000" fill="#E3B856"></path>
<path d="M15.260415,68.926193   C15.669792,68.925583 16.079168,68.924980 16.780552,69.206573   C17.072556,69.488770 17.065140,69.932564 17.065140,69.932564   C17.065140,69.932564 16.902840,70.152412 16.829262,70.268082   C15.980603,70.179344 15.205525,69.974937 14.516285,69.466766   C14.821554,69.084068 15.040985,69.005135 15.260415,68.926193  z" stroke="none" opacity="1.000000" fill="#9D8220"></path>
<path d="M15.093746,68.723732   C15.040985,69.005135 14.821554,69.084068 14.275934,69.287476   C13.800101,69.319946 13.650458,69.227936 13.278139,68.997360   C13.055461,68.858780 13.051671,68.440681 13.046066,68.231995   C13.210828,68.007980 13.381196,67.992661 13.806982,67.958580   C14.350626,68.133636 14.638852,68.327454 15.093746,68.723732  z" stroke="none" opacity="1.000000" fill="#906F1E"></path>
<path d="M64.046875,70.818184   C63.733067,71.008522 63.527786,71.026039 63.013180,71.073120   C62.703857,71.102699 62.324917,71.061447 62.138115,71.023659   C62.518322,70.698509 63.085327,70.411148 63.992668,70.200829   C64.333008,70.277863 64.155411,70.645355 64.046875,70.818184  z" stroke="none" opacity="1.000000" fill="#776617"></path>
<path d="M17.357538,12.700644   C17.263588,13.005960 16.983925,13.055985 16.326405,13.302963   C16.356306,13.148396 16.764067,12.796874 17.357538,12.700644  z" stroke="none" opacity="1.000000" fill="#765300"></path>
<path d="M6.162846,56.982525   C6.087503,49.636368 6.012161,42.290211 5.943101,34.051750   C6.019971,31.442322 6.090559,29.725203 6.161147,28.008081   C6.569965,28.006001 6.978783,28.003918 7.725450,28.392231   C8.675901,36.810955 9.471719,44.833626 9.719825,52.873207   C9.760929,54.205116 7.408934,55.610886 6.162846,56.982525  z" stroke="none" opacity="1.000000" fill="#E2BA4C"></path>
<path d="M6.110432,57.382446   C7.408934,55.610886 9.760929,54.205116 9.719825,52.873207   C9.471719,44.833626 8.675901,36.810955 8.032065,28.391037   C9.428770,26.686037 10.856709,25.372627 12.620654,24.028019   C12.736793,24.495426 12.516924,24.994034 12.171556,26.213816   C12.053232,35.959068 12.060408,44.983143 12.067583,54.007217   C12.279056,55.125690 12.490526,56.244164 12.827429,57.683640   C10.935122,58.976875 8.917385,59.949108 6.565186,60.959229   C6.173154,59.925529 6.115585,58.853947 6.110432,57.382446  z" stroke="none" opacity="1.000000" fill="#E5B845"></path>
<path d="M6.106305,27.633226   C6.090559,29.725203 6.019971,31.442322 5.895405,33.586113   C5.490830,34.015652 5.140234,34.018520 4.528103,34.025848   C4.308774,31.221333 4.350978,28.412367 4.839386,25.267765   C5.489414,24.951735 5.693238,24.971342 5.897062,24.990950   C5.948529,25.746758 5.999996,26.502563 6.106305,27.633226  z" stroke="none" opacity="1.000000" fill="#9A7616"></path>
<path d="M5.914778,24.695297   C5.693238,24.971342 5.489414,24.951735 4.978847,24.883938   C4.714624,24.419399 4.757143,24.003050 4.920704,23.293907   C5.338661,23.467289 5.635577,23.933468 5.914778,24.695297  z" stroke="none" opacity="1.000000" fill="#9E7623"></path>
<path d="M17.310776,69.922241   C17.065140,69.932564 17.072556,69.488770 17.081537,69.267456   C17.373875,69.139626 17.612299,69.299950 17.926739,69.709305   C18.047691,69.891495 17.556410,69.911911 17.310776,69.922241  z" stroke="none" opacity="1.000000" fill="#8F7B40"></path>
<path d="M31.010984,35.946941   C33.141533,37.183769 35.272083,38.420601 37.695808,40.299362   C38.009819,45.626034 38.030651,50.310776 38.039692,55.449451   C38.003624,58.926140 37.979351,61.948895 37.955074,64.971649   C31.207235,62.077755 24.459396,59.183857 17.381884,55.663708   C17.052208,46.907352 17.052208,38.777248 17.052208,29.295008   C22.597776,31.937700 26.804380,33.942322 31.010984,35.946941  z" stroke="none" opacity="1.000000" fill="#E3B946"></path>
<path d="M31.083881,35.620605   C26.804380,33.942322 22.597776,31.937700 17.052208,29.295008   C17.052208,38.777248 17.052208,46.907352 17.069843,55.502563   C15.631449,55.364380 14.175417,54.761093 12.393484,54.082512   C12.060408,44.983143 12.053232,35.959068 12.068190,26.466290   C15.470653,25.281551 18.850983,24.565512 22.591530,23.923172   C26.139853,26.167652 29.327959,28.338430 32.760113,30.748285   C32.388367,32.422993 31.772572,33.858631 31.083881,35.620605  z" stroke="none" opacity="1.000000" fill="#FCD352"></path>
<path d="M38.240288,65.142883   C37.979351,61.948895 38.003624,58.926140 38.402229,55.375229   C40.475372,54.565914 42.174191,54.284756 43.873005,54.003593   C43.911499,57.362904 43.949993,60.722218 43.997288,64.539207   C42.296310,67.125320 40.457527,67.025124 38.240288,65.142883  z" stroke="none" opacity="1.000000" fill="#FDD44F"></path>
<path d="M43.901894,53.537685   C42.174191,54.284756 40.475372,54.565914 38.414024,54.921295   C38.030651,50.310776 38.009819,45.626034 37.978455,40.476547   C39.726406,39.692009 41.484886,39.372219 43.626106,39.027672   C43.982822,43.692532 43.956802,48.382153 43.901894,53.537685  z" stroke="none" opacity="1.000000" fill="#FCD353"></path>
</svg>