<svg xmlns="http://www.w3.org/2000/svg" xmlns:xlink="http://www.w3.org/1999/xlink" id="svg1" version="1.1" width="24" viewBox="0 -960 960 960" height="24">
  <defs id="defs1">
    <linearGradient id="linearGradient1">
      <stop id="stop3" offset="0" style="stop-color:#25779e;stop-opacity:1;"></stop>
      <stop id="stop4" offset="1" style="stop-color:#26ad77;stop-opacity:1;"></stop>
    </linearGradient>
    <linearGradient gradientTransform="matrix(0.69984,0,0,0.69984,162.0864,-144.0768)" gradientUnits="userSpaceOnUse" y2="-760" x2="680" y1="-160" x1="240" id="linearGradient2" xlink:href="#linearGradient1"></linearGradient>
  </defs>
  
  <path style="fill:url(#linearGradient2);stroke-width:0.69984" id="path1" d="m 553.9968,-200.064 v -86.08032 l 154.66464,-153.9648 q 6.29856,-6.29856 13.9968,-9.09792 7.69824,-2.79936 15.39648,-2.79936 8.39808,0 16.09632,3.14928 7.69824,3.14928 13.9968,9.44784 l 25.89408,25.89408 q 5.59872,6.29856 8.748,13.9968 3.14928,7.69824 3.14928,15.39648 0,7.69824 -2.79936,15.7464 -2.79936,8.04816 -9.09792,14.34672 L 640.07712,-200.064 Z M 763.9488,-384.12192 738.05472,-410.016 Z M 595.9872,-242.0544 h 26.59392 l 84.68064,-85.38048 -12.59712,-13.29696 -13.29696,-12.59712 -85.38048,84.68064 z M 330.048,-200.064 q -23.09472,0 -39.54096,-16.44624 -16.44624,-16.44624 -16.44624,-39.54096 v -447.8976 q 0,-23.09472 16.44624,-39.54096 16.44624,-16.44624 39.54096,-16.44624 h 223.9488 l 167.9616,167.9616 v 83.9808 h -55.9872 v -55.9872 h -139.968 v -139.968 H 330.048 v 447.8976 h 167.9616 v 55.9872 z M 526.0032,-480 Z m 168.66144,139.26816 -13.29696,-12.59712 25.89408,25.89408 z"></path>
</svg>
