<svg xmlns="http://www.w3.org/2000/svg" xmlns:xlink="http://www.w3.org/1999/xlink" id="svg1" version="1.1" width="24" viewBox="0 -960 960 960" height="24">
  <defs id="defs1">
    <linearGradient id="linearGradient1">
      <stop id="stop1" offset="0" style="stop-color:#1e77a2;stop-opacity:1;"></stop>
      <stop id="stop2" offset="1" style="stop-color:#2aad78;stop-opacity:1;"></stop>
    </linearGradient>
    <linearGradient gradientUnits="userSpaceOnUse" y2="-800" x2="640" y1="-160" x1="271.50598" id="linearGradient2" xlink:href="#linearGradient1"></linearGradient>
  </defs>
  <path style="fill:url(#linearGradient2);fill-opacity:1" id="path1" d="m 240,-80 q -33,0 -56.5,-23.5 Q 160,-127 160,-160 v -640 q 0,-33 23.5,-56.5 Q 207,-880 240,-880 h 480 q 33,0 56.5,23.5 23.5,23.5 23.5,56.5 v 640 q 0,33 -23.5,56.5 Q 753,-80 720,-80 Z m 0,-80 h 480 v -640 h -80 v 280 l -100,-60 -100,60 V -800 H 240 Z m 0,0 v -640 z m 200,-360 100,-60 100,60 -100,-60 z"></path>
</svg>
